<svg xmlns="http://www.w3.org/2000/svg">
    <symbol id="chevron" viewBox="0 0 12 7" fill="none">
        <path d="M11 1L6 6L1 1" stroke="currentColor" stroke-opacity="0.8" stroke-width="1.5" stroke-linecap="round" stroke-linejoin="round"/>
    </symbol>
    <symbol id="chevron-get-next" viewBox="0 0 5 8">
        <path d="M0.625078 7.99976C0.465078 7.99976 0.305234 7.9439 0.183047 7.83247C-0.0610156 7.60932 -0.0610156 7.24746 0.183047 7.02432L3.49117 3.99972L0.183047 0.975264C-0.0610156 0.752119 -0.0610156 0.390259 0.183047 0.167114C0.427109 -0.0560304 0.82289 -0.0560304 1.06695 0.167114L4.81695 3.59572C5.06102 3.81886 5.06102 4.18072 4.81695 4.40387L1.06695 7.83247C0.944922 7.9439 0.785078 7.99976 0.625078 7.99976Z" fill="currentColor"/>
    </symbol>
    <symbol id="plus" viewBox="0 0 20 20">
        <path d="M19 10H10M10 10H1M10 10V1M10 10V19" stroke="currentColor" stroke-width="2" stroke-linecap="round" stroke-linejoin="round"/>    
    </symbol>
    <symbol id="minus" viewBox="0 0 20 2">
        <path d="M19 1H10H1" stroke="currentColor" stroke-width="2" stroke-linecap="round" stroke-linejoin="round"/>    
    </symbol>
    <symbol id="sign-in" viewBox="0 0 20 20">
        <path d="M8.54036 6.54039C8.7942 6.28655 9.20575 6.28655 9.45959 6.54039L12.4596 9.54039C12.4913 9.57212 12.5191 9.60631 12.5429 9.64235C12.7095 9.89465 12.6817 10.2375 12.4596 10.4596L9.45959 13.4596C9.20575 13.7135 8.7942 13.7135 8.54036 13.4596C8.28652 13.2058 8.28652 12.7942 8.54036 12.5404L10.4307 10.65H3.49998C3.14099 10.65 2.84998 10.359 2.84998 10C2.84998 9.64102 3.14099 9.35001 3.49998 9.35001H10.4307L8.54036 7.45963C8.28652 7.20578 8.28652 6.79423 8.54036 6.54039Z" fill="white"/>
        <path fill-rule="evenodd" clip-rule="evenodd" d="M13 3.65001H8V2.35001H13C15.5681 2.35001 17.65 4.43188 17.65 7.00001V13C17.65 15.5681 15.5681 17.65 13 17.65H8V16.35H13C14.8502 16.35 16.35 14.8502 16.35 13V7.00001C16.35 5.14985 14.8502 3.65001 13 3.65001Z" fill="white"/>
    </symbol>
    <symbol id="exclamation-mark" viewBox="0 0 24 24">
        <path d="M24 12C24 18.6274 18.6274 24 12 24C5.37258 24 0 18.6274 0 12C0 5.37258 5.37258 0 12 0C18.6274 0 24 5.37258 24 12Z" fill="#EF952C"/>
        <path fill-rule="evenodd" clip-rule="evenodd" d="M13 6.60059C13 6.0483 12.5523 5.60059 12 5.60059C11.4477 5.60059 11 6.0483 11 6.60059V13.6006C11 14.1529 11.4477 14.6006 12 14.6006C12.5523 14.6006 13 14.1529 13 13.6006V6.60059ZM13 16.6011C13 16.0488 12.5523 15.6011 12 15.6011C11.4477 15.6011 11 16.0488 11 16.6011V17.1011C11 17.6534 11.4477 18.1011 12 18.1011C12.5523 18.1011 13 17.6534 13 17.1011V16.6011Z" fill="#F4F4F5"/>
    </symbol>
    <symbol id="USDNOK" viewBox="0 0 36 36">
        <mask id="mask0_391_13796" style="mask-type:alpha" maskUnits="userSpaceOnUse" x="0" y="0" width="24" height="24">
        <path fill-rule="evenodd" clip-rule="evenodd" d="M6 0C2.68629 0 0 2.68629 0 6V18C0 21.3137 2.68629 24 6 24H9V16C9 12.134 12.134 9 16 9H24V6C24 2.68629 21.3137 0 18 0H6Z" fill="white"/>
        </mask>
        <g mask="url(#mask0_391_13796)">
        <path d="M0 0H24V24H0V0Z" fill="#F0F3FA"/>
        <path d="M14.6667 5.33333H24V0H14.6667V5.33333ZM0 24H24V18.6667H0V24ZM14.6667 14.6667H24V9.33333H14.6667V14.6667Z" fill="#EB3223"/>
        <path d="M0 0H14.6667V14.6667H0V0Z" fill="#1E88E5"/>
        <path d="M3.2267 1.62679C3.23679 1.60721 3.25209 1.59078 3.2709 1.57931C3.28972 1.56784 3.31133 1.56177 3.33336 1.56177C3.3554 1.56177 3.37701 1.56784 3.39583 1.57931C3.41464 1.59078 3.42994 1.60721 3.44003 1.62679L3.80003 2.57346C3.81336 2.62679 3.8667 2.65346 3.9067 2.65346L4.92003 2.70679C5.0267 2.70679 5.0667 2.84013 4.9867 2.92013L4.1867 3.54679C4.16929 3.56371 4.15742 3.58551 4.15266 3.60932C4.1479 3.63312 4.15047 3.65781 4.16003 3.68013L4.4267 4.64013C4.43482 4.66447 4.43492 4.69078 4.42698 4.71519C4.41904 4.7396 4.40349 4.76082 4.38261 4.77574C4.36172 4.79065 4.33661 4.79848 4.31094 4.79807C4.28528 4.79766 4.26043 4.78904 4.24003 4.77346L3.40003 4.22679C3.3803 4.21361 3.3571 4.20657 3.33336 4.20657C3.30963 4.20657 3.28643 4.21361 3.2667 4.22679L2.4267 4.77346C2.4063 4.78904 2.38144 4.79766 2.35578 4.79807C2.33012 4.79848 2.305 4.79065 2.28412 4.77574C2.26323 4.76082 2.24768 4.7396 2.23975 4.71519C2.23181 4.69078 2.23191 4.66447 2.24003 4.64013L2.5067 3.66679C2.51472 3.64317 2.51518 3.61763 2.50801 3.59373C2.50084 3.56984 2.4864 3.54877 2.4667 3.53346L1.68003 2.92013C1.6612 2.90503 1.64735 2.8846 1.64031 2.86151C1.63327 2.83842 1.63335 2.81375 1.64055 2.79071C1.64775 2.76767 1.66173 2.74733 1.68067 2.73236C1.69961 2.71739 1.72262 2.70848 1.7467 2.70679L2.76003 2.65346C2.80003 2.65346 2.85336 2.62679 2.8667 2.57346L3.2267 1.64013V1.62679ZM3.2267 5.62679C3.23679 5.6072 3.25209 5.59078 3.2709 5.57931C3.28972 5.56783 3.31133 5.56177 3.33336 5.56177C3.3554 5.56177 3.37701 5.56783 3.39583 5.57931C3.41464 5.59078 3.42994 5.6072 3.44003 5.62679L3.80003 6.57346C3.81336 6.62679 3.8667 6.65346 3.9067 6.65346L4.92003 6.70679C5.0267 6.70679 5.0667 6.84013 4.9867 6.92013L4.1867 7.54679C4.16929 7.56371 4.15742 7.58551 4.15266 7.60932C4.1479 7.63312 4.15047 7.65781 4.16003 7.68013L4.4267 8.64013C4.43482 8.66447 4.43492 8.69078 4.42698 8.71519C4.41904 8.7396 4.40349 8.76082 4.38261 8.77573C4.36172 8.79065 4.33661 8.79848 4.31094 8.79807C4.28528 8.79766 4.26043 8.78904 4.24003 8.77346L3.40003 8.22679C3.3803 8.21361 3.3571 8.20657 3.33336 8.20657C3.30963 8.20657 3.28643 8.21361 3.2667 8.22679L2.4267 8.77346C2.4063 8.78904 2.38144 8.79766 2.35578 8.79807C2.33012 8.79848 2.305 8.79065 2.28412 8.77573C2.26323 8.76082 2.24768 8.7396 2.23975 8.71519C2.23181 8.69078 2.23191 8.66447 2.24003 8.64013L2.5067 7.66679C2.51472 7.64317 2.51518 7.61763 2.50801 7.59373C2.50084 7.56984 2.4864 7.54877 2.4667 7.53346L1.68003 6.92013C1.6612 6.90503 1.64735 6.8846 1.64031 6.86151C1.63327 6.83842 1.63335 6.81375 1.64055 6.79071C1.64775 6.76767 1.66173 6.74733 1.68067 6.73236C1.69961 6.71739 1.72262 6.70848 1.7467 6.70679L2.76003 6.65346C2.80003 6.65346 2.85336 6.62679 2.8667 6.57346L3.2267 5.64013V5.62679ZM3.2267 9.62679C3.23679 9.6072 3.25209 9.59077 3.2709 9.5793C3.28972 9.56783 3.31133 9.56177 3.33336 9.56177C3.3554 9.56177 3.37701 9.56783 3.39583 9.5793C3.41464 9.59077 3.42994 9.6072 3.44003 9.62679L3.80003 10.5735C3.81336 10.6268 3.8667 10.6535 3.9067 10.6535L4.92003 10.7068C5.0267 10.7068 5.0667 10.8401 4.9867 10.9201L4.1867 11.5468C4.16929 11.5637 4.15742 11.5855 4.15266 11.6093C4.1479 11.6331 4.15047 11.6578 4.16003 11.6801L4.4267 12.6401C4.43482 12.6645 4.43492 12.6908 4.42698 12.7152C4.41904 12.7396 4.40349 12.7608 4.38261 12.7757C4.36172 12.7907 4.33661 12.7985 4.31094 12.7981C4.28528 12.7977 4.26043 12.789 4.24003 12.7735L3.40003 12.2268C3.3803 12.2136 3.3571 12.2066 3.33336 12.2066C3.30963 12.2066 3.28643 12.2136 3.2667 12.2268L2.4267 12.7735C2.4063 12.789 2.38144 12.7977 2.35578 12.7981C2.33012 12.7985 2.305 12.7907 2.28412 12.7757C2.26323 12.7608 2.24768 12.7396 2.23975 12.7152C2.23181 12.6908 2.23191 12.6645 2.24003 12.6401L2.5067 11.6668C2.51472 11.6432 2.51518 11.6176 2.50801 11.5937C2.50084 11.5698 2.4864 11.5488 2.4667 11.5335L1.68003 10.9201C1.6612 10.905 1.64735 10.8846 1.64031 10.8615C1.63327 10.8384 1.63335 10.8137 1.64055 10.7907C1.64775 10.7677 1.66173 10.7473 1.68067 10.7324C1.69961 10.7174 1.72262 10.7085 1.7467 10.7068L2.76003 10.6535C2.80003 10.6535 2.85336 10.6268 2.8667 10.5735L3.2267 9.64013V9.62679ZM7.2267 1.62679C7.23679 1.60721 7.25209 1.59078 7.2709 1.57931C7.28972 1.56784 7.31133 1.56177 7.33336 1.56177C7.3554 1.56177 7.37701 1.56784 7.39583 1.57931C7.41464 1.59078 7.42994 1.60721 7.44003 1.62679L7.80003 2.57346C7.81336 2.62679 7.8667 2.65346 7.9067 2.65346L8.92003 2.70679C9.0267 2.70679 9.0667 2.84013 8.9867 2.92013L8.1867 3.54679C8.16929 3.56371 8.15742 3.58551 8.15266 3.60932C8.1479 3.63312 8.15047 3.65781 8.16003 3.68013L8.4267 4.64013C8.43482 4.66447 8.43492 4.69078 8.42698 4.71519C8.41904 4.7396 8.40349 4.76082 8.38261 4.77574C8.36172 4.79065 8.33661 4.79848 8.31095 4.79807C8.28528 4.79766 8.26043 4.78904 8.24003 4.77346L7.40003 4.22679C7.3803 4.21361 7.3571 4.20657 7.33336 4.20657C7.30963 4.20657 7.28643 4.21361 7.2667 4.22679L6.4267 4.77346C6.4063 4.78904 6.38144 4.79766 6.35578 4.79807C6.33012 4.79848 6.305 4.79065 6.28412 4.77574C6.26324 4.76082 6.24768 4.7396 6.23975 4.71519C6.23181 4.69078 6.23191 4.66447 6.24003 4.64013L6.5067 3.66679C6.51472 3.64317 6.51518 3.61763 6.50801 3.59373C6.50084 3.56984 6.4864 3.54877 6.4667 3.53346L5.68003 2.92013C5.6612 2.90503 5.64735 2.8846 5.64031 2.86151C5.63327 2.83842 5.63335 2.81375 5.64055 2.79071C5.64775 2.76767 5.66173 2.74733 5.68067 2.73236C5.69961 2.71739 5.72262 2.70848 5.7467 2.70679L6.76003 2.65346C6.80003 2.65346 6.85336 2.62679 6.8667 2.57346L7.2267 1.64013V1.62679ZM7.2267 5.62679C7.23679 5.6072 7.25209 5.59078 7.2709 5.57931C7.28972 5.56783 7.31133 5.56177 7.33336 5.56177C7.3554 5.56177 7.37701 5.56783 7.39583 5.57931C7.41464 5.59078 7.42994 5.6072 7.44003 5.62679L7.80003 6.57346C7.81336 6.62679 7.8667 6.65346 7.9067 6.65346L8.92003 6.70679C9.0267 6.70679 9.0667 6.84013 8.9867 6.92013L8.1867 7.54679C8.16929 7.56371 8.15742 7.58551 8.15266 7.60932C8.1479 7.63312 8.15047 7.65781 8.16003 7.68013L8.4267 8.64013C8.43482 8.66447 8.43492 8.69078 8.42698 8.71519C8.41904 8.7396 8.40349 8.76082 8.38261 8.77573C8.36172 8.79065 8.33661 8.79848 8.31095 8.79807C8.28528 8.79766 8.26043 8.78904 8.24003 8.77346L7.40003 8.22679C7.3803 8.21361 7.3571 8.20657 7.33336 8.20657C7.30963 8.20657 7.28643 8.21361 7.2667 8.22679L6.4267 8.77346C6.4063 8.78904 6.38144 8.79766 6.35578 8.79807C6.33012 8.79848 6.305 8.79065 6.28412 8.77573C6.26324 8.76082 6.24768 8.7396 6.23975 8.71519C6.23181 8.69078 6.23191 8.66447 6.24003 8.64013L6.5067 7.66679C6.51472 7.64317 6.51518 7.61763 6.50801 7.59373C6.50084 7.56984 6.4864 7.54877 6.4667 7.53346L5.68003 6.92013C5.6612 6.90503 5.64735 6.8846 5.64031 6.86151C5.63327 6.83842 5.63335 6.81375 5.64055 6.79071C5.64775 6.76767 5.66173 6.74733 5.68067 6.73236C5.69961 6.71739 5.72262 6.70848 5.7467 6.70679L6.76003 6.65346C6.80003 6.65346 6.85336 6.62679 6.8667 6.57346L7.2267 5.64013V5.62679ZM7.2267 9.62679C7.23679 9.6072 7.25209 9.59077 7.2709 9.5793C7.28972 9.56783 7.31133 9.56177 7.33336 9.56177C7.3554 9.56177 7.37701 9.56783 7.39583 9.5793C7.41464 9.59077 7.42994 9.6072 7.44003 9.62679L7.80003 10.5735C7.81336 10.6268 7.8667 10.6535 7.9067 10.6535L8.92003 10.7068C9.0267 10.7068 9.0667 10.8401 8.9867 10.9201L8.1867 11.5468C8.16929 11.5637 8.15742 11.5855 8.15266 11.6093C8.1479 11.6331 8.15047 11.6578 8.16003 11.6801L8.4267 12.6401C8.43482 12.6645 8.43492 12.6908 8.42698 12.7152C8.41904 12.7396 8.40349 12.7608 8.38261 12.7757C8.36172 12.7907 8.33661 12.7985 8.31095 12.7981C8.28528 12.7977 8.26043 12.789 8.24003 12.7735L7.40003 12.2268C7.3803 12.2136 7.3571 12.2066 7.33336 12.2066C7.30963 12.2066 7.28643 12.2136 7.2667 12.2268L6.4267 12.7735C6.4063 12.789 6.38144 12.7977 6.35578 12.7981C6.33012 12.7985 6.305 12.7907 6.28412 12.7757C6.26324 12.7608 6.24768 12.7396 6.23975 12.7152C6.23181 12.6908 6.23191 12.6645 6.24003 12.6401L6.5067 11.6668C6.51472 11.6432 6.51518 11.6176 6.50801 11.5937C6.50084 11.5698 6.4864 11.5488 6.4667 11.5335L5.68003 10.9201C5.6612 10.905 5.64735 10.8846 5.64031 10.8615C5.63327 10.8384 5.63335 10.8137 5.64055 10.7907C5.64775 10.7677 5.66173 10.7473 5.68067 10.7324C5.69961 10.7174 5.72262 10.7085 5.7467 10.7068L6.76003 10.6535C6.80003 10.6535 6.85336 10.6268 6.8667 10.5735L7.2267 9.64013V9.62679ZM11.2267 1.62679C11.2368 1.60721 11.2521 1.59078 11.2709 1.57931C11.2897 1.56784 11.3113 1.56177 11.3334 1.56177C11.3554 1.56177 11.377 1.56784 11.3958 1.57931C11.4146 1.59078 11.4299 1.60721 11.44 1.62679L11.8 2.57346C11.8134 2.62679 11.8667 2.65346 11.9067 2.65346L12.92 2.70679C13.0267 2.70679 13.0667 2.84013 12.9867 2.92013L12.1867 3.54679C12.1693 3.56371 12.1574 3.58551 12.1527 3.60932C12.1479 3.63312 12.1505 3.65781 12.16 3.68013L12.4267 4.64013C12.4348 4.66447 12.4349 4.69078 12.427 4.71519C12.419 4.7396 12.4035 4.76082 12.3826 4.77574C12.3617 4.79065 12.3366 4.79848 12.3109 4.79807C12.2853 4.79766 12.2604 4.78904 12.24 4.77346L11.4 4.22679C11.3803 4.21361 11.3571 4.20657 11.3334 4.20657C11.3096 4.20657 11.2864 4.21361 11.2667 4.22679L10.4267 4.77346C10.4063 4.78904 10.3814 4.79766 10.3558 4.79807C10.3301 4.79848 10.305 4.79065 10.2841 4.77574C10.2632 4.76082 10.2477 4.7396 10.2397 4.71519C10.2318 4.69078 10.2319 4.66447 10.24 4.64013L10.5067 3.66679C10.5147 3.64317 10.5152 3.61763 10.508 3.59373C10.5008 3.56984 10.4864 3.54877 10.4667 3.53346L9.68003 2.92013C9.6612 2.90503 9.64736 2.8846 9.64031 2.86151C9.63327 2.83842 9.63335 2.81375 9.64055 2.79071C9.64775 2.76767 9.66174 2.74733 9.68067 2.73236C9.69961 2.71739 9.72262 2.70848 9.7467 2.70679L10.76 2.65346C10.8 2.65346 10.8534 2.62679 10.8667 2.57346L11.2267 1.64013V1.62679ZM11.2267 5.62679C11.2368 5.6072 11.2521 5.59078 11.2709 5.57931C11.2897 5.56783 11.3113 5.56177 11.3334 5.56177C11.3554 5.56177 11.377 5.56783 11.3958 5.57931C11.4146 5.59078 11.4299 5.6072 11.44 5.62679L11.8 6.57346C11.8134 6.62679 11.8667 6.65346 11.9067 6.65346L12.92 6.70679C13.0267 6.70679 13.0667 6.84013 12.9867 6.92013L12.1867 7.54679C12.1693 7.56371 12.1574 7.58551 12.1527 7.60932C12.1479 7.63312 12.1505 7.65781 12.16 7.68013L12.4267 8.64013C12.4348 8.66447 12.4349 8.69078 12.427 8.71519C12.419 8.7396 12.4035 8.76082 12.3826 8.77573C12.3617 8.79065 12.3366 8.79848 12.3109 8.79807C12.2853 8.79766 12.2604 8.78904 12.24 8.77346L11.4 8.22679C11.3803 8.21361 11.3571 8.20657 11.3334 8.20657C11.3096 8.20657 11.2864 8.21361 11.2667 8.22679L10.4267 8.77346C10.4063 8.78904 10.3814 8.79766 10.3558 8.79807C10.3301 8.79848 10.305 8.79065 10.2841 8.77573C10.2632 8.76082 10.2477 8.7396 10.2397 8.71519C10.2318 8.69078 10.2319 8.66447 10.24 8.64013L10.5067 7.66679C10.5147 7.64317 10.5152 7.61763 10.508 7.59373C10.5008 7.56984 10.4864 7.54877 10.4667 7.53346L9.68003 6.92013C9.6612 6.90503 9.64736 6.8846 9.64031 6.86151C9.63327 6.83842 9.63335 6.81375 9.64055 6.79071C9.64775 6.76767 9.66174 6.74733 9.68067 6.73236C9.69961 6.71739 9.72262 6.70848 9.7467 6.70679L10.76 6.65346C10.8 6.65346 10.8534 6.62679 10.8667 6.57346L11.2267 5.64013V5.62679ZM11.2267 9.62679C11.2368 9.6072 11.2521 9.59077 11.2709 9.5793C11.2897 9.56783 11.3113 9.56177 11.3334 9.56177C11.3554 9.56177 11.377 9.56783 11.3958 9.5793C11.4146 9.59077 11.4299 9.6072 11.44 9.62679L11.8 10.5735C11.8134 10.6268 11.8667 10.6535 11.9067 10.6535L12.92 10.7068C13.0267 10.7068 13.0667 10.8401 12.9867 10.9201L12.1867 11.5468C12.1693 11.5637 12.1574 11.5855 12.1527 11.6093C12.1479 11.6331 12.1505 11.6578 12.16 11.6801L12.4267 12.6401C12.4348 12.6645 12.4349 12.6908 12.427 12.7152C12.419 12.7396 12.4035 12.7608 12.3826 12.7757C12.3617 12.7907 12.3366 12.7985 12.3109 12.7981C12.2853 12.7977 12.2604 12.789 12.24 12.7735L11.4 12.2268C11.3803 12.2136 11.3571 12.2066 11.3334 12.2066C11.3096 12.2066 11.2864 12.2136 11.2667 12.2268L10.4267 12.7735C10.4063 12.789 10.3814 12.7977 10.3558 12.7981C10.3301 12.7985 10.305 12.7907 10.2841 12.7757C10.2632 12.7608 10.2477 12.7396 10.2397 12.7152C10.2318 12.6908 10.2319 12.6645 10.24 12.6401L10.5067 11.6668C10.5147 11.6432 10.5152 11.6176 10.508 11.5937C10.5008 11.5698 10.4864 11.5488 10.4667 11.5335L9.68003 10.9201C9.6612 10.905 9.64736 10.8846 9.64031 10.8615C9.63327 10.8384 9.63335 10.8137 9.64055 10.7907C9.64775 10.7677 9.66174 10.7473 9.68067 10.7324C9.69961 10.7174 9.72262 10.7085 9.7467 10.7068L10.76 10.6535C10.8 10.6535 10.8534 10.6268 10.8667 10.5735L11.2267 9.64013V9.62679Z" fill="#F0F3FA"/>
        </g>
        <mask id="mask1_391_13796" style="mask-type:alpha" maskUnits="userSpaceOnUse" x="12" y="12" width="24" height="24">
        <rect x="12" y="12" width="24" height="24" rx="6" fill="white"/>
        </mask>
        <g mask="url(#mask1_391_13796)">
        <path d="M12 12H36V36H12V12Z" fill="#EB3223"/>
        <path d="M17.3333 12H24V36H17.3333V12Z" fill="#F0F3FA"/>
        <path d="M12 21.3335H36V28.0002H12V21.3335Z" fill="#F0F3FA"/>
        <path d="M18.6667 12H22.6667V36H18.6667V12Z" fill="#1565C0"/>
        <path d="M12 22.6667H36V26.6667H12V22.6667Z" fill="#1565C0"/>
        </g>    
    </symbol>
    <symbol id="external-link-arrow" viewBox="0 0 16 16">
        <path fill-rule="evenodd" clip-rule="evenodd" d="M7.85714 2.3999H13.6V8.14276H12.4V4.44843L7.42426 9.42417L6.57574 8.57564L11.5515 3.5999H7.85714V2.3999Z" fill="currentColor"/>
    </symbol>
    <symbol id="burger-menu" viewBox="0 0 24 24">
        <path d="M3 5H21" stroke="currentColor" stroke-width="1.7" stroke-linecap="round"/>
        <path d="M3 12H21" stroke="currentColor" stroke-width="1.7" stroke-linecap="round"/>
        <path d="M3 19H21" stroke="currentColor" stroke-width="1.7" stroke-linecap="round"/>
    </symbol>
    <symbol id="close-cross" viewBox="0 0 24 24">
        <path d="M19 5L12 12M5 19L12 12M12 12L5 5L19 19" stroke-width="1.5" stroke-linecap="round" stroke-linejoin="round"/>
    </symbol>
</svg>