<svg xmlns="http://www.w3.org/2000/svg" display="none">
    <symbol id="bcs-logo" viewBox="0 0 192 47" fill="none">
        <path fill-rule="evenodd" clip-rule="evenodd" d="M97.4026 18.5483H97.53V27.5552H97.4026C95.6399 27.5552 94.3444 27.1477 93.4736 26.3328C92.6029 25.5393 92.1782 24.4242 92.1782 23.0303C92.1782 21.6363 92.6241 20.5426 93.4949 19.7277C94.3656 18.9343 95.6611 18.5268 97.4026 18.5483ZM97.53 29.378V31.3724H99.4839V29.378H99.6113C100.716 29.378 101.714 29.2279 102.606 28.9277C103.498 28.6489 104.262 28.22 104.899 27.6838C105.515 27.1477 106.004 26.4829 106.344 25.6895C106.662 24.896 106.832 24.0167 106.832 23.0303C106.832 22.0438 106.662 21.1646 106.344 20.3711C106.004 19.5991 105.515 18.9343 104.899 18.3981C104.284 17.862 103.519 17.4331 102.627 17.1543C101.735 16.8755 100.737 16.7254 99.6113 16.7254H99.4839V14.8597H97.53V16.7254H97.4239C96.2983 16.7254 95.3001 16.8755 94.4081 17.1543C93.5161 17.4331 92.7516 17.862 92.1357 18.3981C91.4986 18.9343 91.0101 19.5991 90.6915 20.3711C90.3517 21.1646 90.1818 22.0438 90.1818 23.0303C90.1818 24.0167 90.3517 24.896 90.6915 25.6895C91.0101 26.4829 91.4986 27.1477 92.1357 27.6838C92.7516 28.22 93.5161 28.6489 94.4081 28.9277C95.3001 29.2279 96.2983 29.378 97.4239 29.378H97.53ZM103.562 26.3328C102.691 27.1477 101.374 27.5552 99.6113 27.5552H99.4839V18.5483H99.6113C101.353 18.5268 102.67 18.9343 103.54 19.7277C104.411 20.5426 104.857 21.6363 104.857 23.0303C104.857 24.4242 104.432 25.5393 103.562 26.3328ZM116.477 29.0992C117.306 29.0992 118.07 28.9491 118.792 28.6274C119.493 28.3272 120.109 27.8983 120.64 27.3622C121.15 26.826 121.553 26.1827 121.851 25.4536C122.148 24.7459 122.297 23.9524 122.297 23.1161C122.297 22.2797 122.148 21.5077 121.851 20.7785C121.553 20.0494 121.15 19.4061 120.64 18.8699C120.109 18.3338 119.493 17.9049 118.792 17.5832C118.07 17.283 117.306 17.1329 116.477 17.1329C115.649 17.1329 114.885 17.283 114.184 17.5832C113.483 17.9049 112.867 18.3338 112.357 18.8699C111.826 19.4061 111.423 20.0494 111.126 20.7785C110.828 21.5077 110.68 22.2797 110.68 23.1161C110.68 23.9524 110.828 24.7459 111.126 25.4536C111.423 26.1827 111.826 26.826 112.357 27.3622C112.867 27.8983 113.483 28.3272 114.184 28.6274C114.885 28.9491 115.649 29.0992 116.477 29.0992ZM116.477 30.9864C115.394 30.9864 114.375 30.7719 113.44 30.3645C112.485 29.957 111.657 29.3994 110.956 28.6918C110.255 27.9841 109.703 27.1692 109.299 26.2041C108.896 25.2391 108.683 24.2097 108.683 23.1161C108.683 22.0224 108.896 20.993 109.299 20.028C109.703 19.0629 110.255 18.2266 110.956 17.5189C111.657 16.8112 112.485 16.2536 113.44 15.8462C114.375 15.4387 115.394 15.2457 116.477 15.2457C117.561 15.2457 118.58 15.4387 119.536 15.8462C120.491 16.2536 121.32 16.8112 122.02 17.5189C122.721 18.2266 123.273 19.0629 123.677 20.028C124.081 20.993 124.272 22.0224 124.272 23.1161C124.272 24.2097 124.081 25.2391 123.677 26.2041C123.273 27.1692 122.721 27.9841 122.02 28.6918C121.32 29.3994 120.491 29.957 119.536 30.3645C118.58 30.7719 117.561 30.9864 116.477 30.9864ZM169.48 30.3859C170.435 30.7934 171.455 30.9864 172.559 30.9864C173.515 30.9864 174.386 30.8363 175.193 30.536C176 30.2572 176.722 29.8712 177.359 29.378C177.975 28.8848 178.506 28.3272 178.909 27.6838C179.313 27.0619 179.61 26.3971 179.78 25.7109H177.699C177.529 26.1827 177.295 26.633 176.977 27.0405C176.658 27.4479 176.276 27.8125 175.83 28.1127C175.384 28.4344 174.874 28.6703 174.322 28.8419C173.77 29.0134 173.175 29.0992 172.559 29.0992C171.731 29.0992 170.945 28.9491 170.244 28.6274C169.522 28.3272 168.906 27.8983 168.375 27.3622C167.844 26.826 167.441 26.2041 167.165 25.475C166.868 24.7459 166.719 23.9524 166.719 23.1161C166.719 22.2797 166.868 21.4862 167.165 20.7571C167.441 20.028 167.844 19.3846 168.375 18.8485C168.906 18.3124 169.522 17.9049 170.244 17.5832C170.945 17.283 171.731 17.1329 172.559 17.1329C173.175 17.1329 173.77 17.2187 174.322 17.3902C174.874 17.5618 175.384 17.7977 175.83 18.0979C176.276 18.4196 176.658 18.7842 176.977 19.1916C177.295 19.5991 177.529 20.0494 177.699 20.5212H179.78C179.61 19.835 179.313 19.1702 178.909 18.5268C178.506 17.9049 177.975 17.3473 177.359 16.8541C176.722 16.3609 176 15.9749 175.193 15.6746C174.386 15.3958 173.515 15.2457 172.559 15.2457C171.455 15.2457 170.435 15.4387 169.48 15.8462C168.524 16.2536 167.696 16.7898 166.995 17.4975C166.294 18.2051 165.742 19.0415 165.338 20.0065C164.935 20.9715 164.744 22.0009 164.744 23.1161C164.744 24.2312 164.935 25.2606 165.338 26.2256C165.742 27.1906 166.294 28.0055 166.995 28.7132C167.696 29.4209 168.524 29.9785 169.48 30.3859ZM153.469 30.729V23.4806L161.475 30.729H164.257L155.444 22.7515L162.622 15.5031H160.052L153.469 22.1081V15.5031H151.515V30.729H153.469ZM139.693 15.5031H148.485V17.3902H141.668V22.0009H147.211V23.8881H141.668V28.8419H148.485V30.729H139.693V15.5031ZM136.679 22.2582C136.912 21.6792 137.04 21.0359 137.04 20.3496C137.04 19.6634 136.912 19.02 136.679 18.4196C136.424 17.8406 136.084 17.3259 135.638 16.897C135.192 16.4681 134.64 16.125 134.003 15.8676C133.344 15.6317 132.644 15.5031 131.858 15.5031H127.249V30.729H129.224V25.1748H131.858C132.644 25.1748 133.344 25.0461 134.003 24.8102C134.64 24.5743 135.192 24.2312 135.638 23.7808C136.084 23.3519 136.424 22.8373 136.679 22.2582ZM134.873 19.1702C135.022 19.5347 135.086 19.9207 135.086 20.3496C135.086 20.7785 135.022 21.1645 134.873 21.5291C134.725 21.8937 134.534 22.1939 134.258 22.4727C133.981 22.7515 133.642 22.9445 133.238 23.0946C132.835 23.2447 132.389 23.3305 131.858 23.3305H129.224V17.3688H131.858C132.389 17.3688 132.835 17.4331 133.238 17.5832C133.642 17.7333 133.981 17.9478 134.258 18.2266C134.534 18.5054 134.725 18.8056 134.873 19.1702Z" fill="white"/>
        <path fill-rule="evenodd" clip-rule="evenodd" d="M52.4651 25.9469C52.4651 23.1289 50.2499 21.1945 47.2709 21.1945H44.2307V18.4527H51.1513V15.4976H41.0989V30.6993H47.2709C50.2499 30.6993 52.4651 28.7343 52.4651 25.9469ZM44.2307 24.0429H47.225C48.5389 24.0429 49.425 24.7283 49.425 25.9469C49.425 27.1654 48.5236 27.8356 47.2098 27.8356H44.2307V24.0429Z" fill="white"/>
        <path d="M57.8121 23.8144V30.7145H54.7261V15.4976H57.8274V21.9408L63.3272 15.4976H67.1771L60.8982 22.8091L68.4757 30.7145H64.4425L57.8121 23.8144Z" fill="white"/>
        <path d="M76.6798 15.2538C72.066 15.2538 68.6898 18.7267 68.6898 23.1136C68.6898 27.5004 72.066 30.9733 76.6798 30.9733C80.1477 30.9733 83.2185 28.7647 84.074 25.5355H80.6977C80.0713 27.0587 78.3756 27.9726 76.6798 27.9726C73.7618 27.9726 71.8216 25.8401 71.8216 23.1136C71.8216 20.4023 73.7618 18.2545 76.6798 18.2545C78.3756 18.2545 80.0713 19.1685 80.6977 20.6917H84.074C83.2185 17.4625 80.1324 15.2538 76.6798 15.2538Z" fill="white"/>
        <path d="M23.2727 35.561C29.6993 35.561 34.9091 30.3003 34.9091 23.811C34.9091 17.3216 29.6993 12.061 23.2727 12.061C16.8461 12.061 11.6364 17.3216 11.6364 23.811C11.6364 30.3003 16.8461 35.561 23.2727 35.561Z" fill="url(#paint0_linear_391_13682)"/>
        <path d="M23.2727 35.561C29.6993 35.561 34.9091 30.3003 34.9091 23.811C34.9091 17.3216 29.6993 12.061 23.2727 12.061C16.8461 12.061 11.6364 17.3216 11.6364 23.811C11.6364 30.3003 16.8461 35.561 23.2727 35.561Z" fill="url(#paint1_linear_391_13682)"/>
        <path d="M16.915 14.0674C13.0464 17.6208 13.4662 24.0232 17.854 28.3659C22.2402 32.7086 28.9317 33.35 32.8019 29.795C33.2404 29.3922 33.6238 28.9529 33.9526 28.4843C34.5681 27.052 34.9093 25.4717 34.9093 23.811C34.9093 17.3216 29.6995 12.061 23.273 12.061C21.1099 12.061 19.0847 12.6569 17.3496 13.6951C17.2012 13.8136 17.0562 13.9377 16.915 14.0674Z" fill="url(#paint2_radial_391_13682)"/>
        <path d="M17.705 14.0667C15.874 16.8826 18.0064 21.2587 22.4685 23.8383C26.9307 26.4194 32.0307 26.2279 33.8633 23.4104C34.3808 22.6147 34.5821 21.6948 34.5041 20.7261C33.1623 15.7332 28.6423 12.061 23.2729 12.061C21.6513 12.061 20.1073 12.3959 18.7048 13.0009C18.3099 13.2999 17.9725 13.6553 17.705 14.0667Z" fill="url(#paint3_linear_391_13682)"/>
        <defs>
        <linearGradient id="paint0_linear_391_13682" x1="22.9818" y1="35.2672" x2="23.1559" y2="13.4054" gradientUnits="userSpaceOnUse">
        <stop stop-color="#412E63"/>
        <stop offset="0.479167" stop-color="#B5A7CD"/>
        <stop offset="1" stop-color="#ECE9F1"/>
        </linearGradient>
        <linearGradient id="paint1_linear_391_13682" x1="33.1636" y1="29.0985" x2="20.8585" y2="19.8138" gradientUnits="userSpaceOnUse">
        <stop stop-color="#5B4386"/>
        <stop offset="1" stop-color="#B8ABCF" stop-opacity="0"/>
        </linearGradient>
        <radialGradient id="paint2_radial_391_13682" cx="0" cy="0" r="1" gradientUnits="userSpaceOnUse" gradientTransform="translate(37.0554 26.5751) rotate(-152.727) scale(27.7608 57.564)">
        <stop offset="0.103242" stop-color="#6B509A"/>
        <stop offset="0.459935" stop-color="#A594C1"/>
        <stop offset="0.630708" stop-color="#C9BFDA"/>
        <stop offset="0.794216" stop-color="#F7F5F9"/>
        </radialGradient>
        <linearGradient id="paint3_linear_391_13682" x1="33.4323" y1="16.1675" x2="16.8667" y2="18.479" gradientUnits="userSpaceOnUse">
        <stop stop-color="#9C89BB"/>
        <stop offset="0.476252" stop-color="#D3C8E7"/>
        <stop offset="0.770833" stop-color="#EEEBF3"/>
        <stop offset="1" stop-color="white"/>
        </linearGradient>
        </defs>
    </symbol>
    <symbol id="chevron" viewBox="0 0 12 7" fill="none">
        <path d="M11 1L6 6L1 1" stroke="currentColor" stroke-opacity="0.8" stroke-width="1.5" stroke-linecap="round" stroke-linejoin="round"/>
    </symbol>
    <symbol id="sign-in" viewBox="0 0 20 20" fill="none">
        <path d="M8.54036 6.54039C8.7942 6.28655 9.20575 6.28655 9.45959 6.54039L12.4596 9.54039C12.4913 9.57212 12.5191 9.60631 12.5429 9.64235C12.7095 9.89465 12.6817 10.2375 12.4596 10.4596L9.45959 13.4596C9.20575 13.7135 8.7942 13.7135 8.54036 13.4596C8.28652 13.2058 8.28652 12.7942 8.54036 12.5404L10.4307 10.65H3.49998C3.14099 10.65 2.84998 10.359 2.84998 10C2.84998 9.64102 3.14099 9.35001 3.49998 9.35001H10.4307L8.54036 7.45963C8.28652 7.20578 8.28652 6.79423 8.54036 6.54039Z" fill="white"/>
        <path fill-rule="evenodd" clip-rule="evenodd" d="M13 3.65001H8V2.35001H13C15.5681 2.35001 17.65 4.43188 17.65 7.00001V13C17.65 15.5681 15.5681 17.65 13 17.65H8V16.35H13C14.8502 16.35 16.35 14.8502 16.35 13V7.00001C16.35 5.14985 14.8502 3.65001 13 3.65001Z" fill="white"/>
    </symbol>
    <symbol id="exclamation-mark" viewBox="0 0 24 24" fill="none">
        <path d="M24 12C24 18.6274 18.6274 24 12 24C5.37258 24 0 18.6274 0 12C0 5.37258 5.37258 0 12 0C18.6274 0 24 5.37258 24 12Z" fill="#EF952C"/>
        <path fill-rule="evenodd" clip-rule="evenodd" d="M13 6.60059C13 6.0483 12.5523 5.60059 12 5.60059C11.4477 5.60059 11 6.0483 11 6.60059V13.6006C11 14.1529 11.4477 14.6006 12 14.6006C12.5523 14.6006 13 14.1529 13 13.6006V6.60059ZM13 16.6011C13 16.0488 12.5523 15.6011 12 15.6011C11.4477 15.6011 11 16.0488 11 16.6011V17.1011C11 17.6534 11.4477 18.1011 12 18.1011C12.5523 18.1011 13 17.6534 13 17.1011V16.6011Z" fill="#F4F4F5"/>
    </symbol>
    <symbol id="USDNOK" viewBox="0 0 36 36" fill="none">
        <mask id="mask0_391_13796" style="mask-type:alpha" maskUnits="userSpaceOnUse" x="0" y="0" width="24" height="24">
        <path fill-rule="evenodd" clip-rule="evenodd" d="M6 0C2.68629 0 0 2.68629 0 6V18C0 21.3137 2.68629 24 6 24H9V16C9 12.134 12.134 9 16 9H24V6C24 2.68629 21.3137 0 18 0H6Z" fill="white"/>
        </mask>
        <g mask="url(#mask0_391_13796)">
        <path d="M0 0H24V24H0V0Z" fill="#F0F3FA"/>
        <path d="M14.6667 5.33333H24V0H14.6667V5.33333ZM0 24H24V18.6667H0V24ZM14.6667 14.6667H24V9.33333H14.6667V14.6667Z" fill="#EB3223"/>
        <path d="M0 0H14.6667V14.6667H0V0Z" fill="#1E88E5"/>
        <path d="M3.2267 1.62679C3.23679 1.60721 3.25209 1.59078 3.2709 1.57931C3.28972 1.56784 3.31133 1.56177 3.33336 1.56177C3.3554 1.56177 3.37701 1.56784 3.39583 1.57931C3.41464 1.59078 3.42994 1.60721 3.44003 1.62679L3.80003 2.57346C3.81336 2.62679 3.8667 2.65346 3.9067 2.65346L4.92003 2.70679C5.0267 2.70679 5.0667 2.84013 4.9867 2.92013L4.1867 3.54679C4.16929 3.56371 4.15742 3.58551 4.15266 3.60932C4.1479 3.63312 4.15047 3.65781 4.16003 3.68013L4.4267 4.64013C4.43482 4.66447 4.43492 4.69078 4.42698 4.71519C4.41904 4.7396 4.40349 4.76082 4.38261 4.77574C4.36172 4.79065 4.33661 4.79848 4.31094 4.79807C4.28528 4.79766 4.26043 4.78904 4.24003 4.77346L3.40003 4.22679C3.3803 4.21361 3.3571 4.20657 3.33336 4.20657C3.30963 4.20657 3.28643 4.21361 3.2667 4.22679L2.4267 4.77346C2.4063 4.78904 2.38144 4.79766 2.35578 4.79807C2.33012 4.79848 2.305 4.79065 2.28412 4.77574C2.26323 4.76082 2.24768 4.7396 2.23975 4.71519C2.23181 4.69078 2.23191 4.66447 2.24003 4.64013L2.5067 3.66679C2.51472 3.64317 2.51518 3.61763 2.50801 3.59373C2.50084 3.56984 2.4864 3.54877 2.4667 3.53346L1.68003 2.92013C1.6612 2.90503 1.64735 2.8846 1.64031 2.86151C1.63327 2.83842 1.63335 2.81375 1.64055 2.79071C1.64775 2.76767 1.66173 2.74733 1.68067 2.73236C1.69961 2.71739 1.72262 2.70848 1.7467 2.70679L2.76003 2.65346C2.80003 2.65346 2.85336 2.62679 2.8667 2.57346L3.2267 1.64013V1.62679ZM3.2267 5.62679C3.23679 5.6072 3.25209 5.59078 3.2709 5.57931C3.28972 5.56783 3.31133 5.56177 3.33336 5.56177C3.3554 5.56177 3.37701 5.56783 3.39583 5.57931C3.41464 5.59078 3.42994 5.6072 3.44003 5.62679L3.80003 6.57346C3.81336 6.62679 3.8667 6.65346 3.9067 6.65346L4.92003 6.70679C5.0267 6.70679 5.0667 6.84013 4.9867 6.92013L4.1867 7.54679C4.16929 7.56371 4.15742 7.58551 4.15266 7.60932C4.1479 7.63312 4.15047 7.65781 4.16003 7.68013L4.4267 8.64013C4.43482 8.66447 4.43492 8.69078 4.42698 8.71519C4.41904 8.7396 4.40349 8.76082 4.38261 8.77573C4.36172 8.79065 4.33661 8.79848 4.31094 8.79807C4.28528 8.79766 4.26043 8.78904 4.24003 8.77346L3.40003 8.22679C3.3803 8.21361 3.3571 8.20657 3.33336 8.20657C3.30963 8.20657 3.28643 8.21361 3.2667 8.22679L2.4267 8.77346C2.4063 8.78904 2.38144 8.79766 2.35578 8.79807C2.33012 8.79848 2.305 8.79065 2.28412 8.77573C2.26323 8.76082 2.24768 8.7396 2.23975 8.71519C2.23181 8.69078 2.23191 8.66447 2.24003 8.64013L2.5067 7.66679C2.51472 7.64317 2.51518 7.61763 2.50801 7.59373C2.50084 7.56984 2.4864 7.54877 2.4667 7.53346L1.68003 6.92013C1.6612 6.90503 1.64735 6.8846 1.64031 6.86151C1.63327 6.83842 1.63335 6.81375 1.64055 6.79071C1.64775 6.76767 1.66173 6.74733 1.68067 6.73236C1.69961 6.71739 1.72262 6.70848 1.7467 6.70679L2.76003 6.65346C2.80003 6.65346 2.85336 6.62679 2.8667 6.57346L3.2267 5.64013V5.62679ZM3.2267 9.62679C3.23679 9.6072 3.25209 9.59077 3.2709 9.5793C3.28972 9.56783 3.31133 9.56177 3.33336 9.56177C3.3554 9.56177 3.37701 9.56783 3.39583 9.5793C3.41464 9.59077 3.42994 9.6072 3.44003 9.62679L3.80003 10.5735C3.81336 10.6268 3.8667 10.6535 3.9067 10.6535L4.92003 10.7068C5.0267 10.7068 5.0667 10.8401 4.9867 10.9201L4.1867 11.5468C4.16929 11.5637 4.15742 11.5855 4.15266 11.6093C4.1479 11.6331 4.15047 11.6578 4.16003 11.6801L4.4267 12.6401C4.43482 12.6645 4.43492 12.6908 4.42698 12.7152C4.41904 12.7396 4.40349 12.7608 4.38261 12.7757C4.36172 12.7907 4.33661 12.7985 4.31094 12.7981C4.28528 12.7977 4.26043 12.789 4.24003 12.7735L3.40003 12.2268C3.3803 12.2136 3.3571 12.2066 3.33336 12.2066C3.30963 12.2066 3.28643 12.2136 3.2667 12.2268L2.4267 12.7735C2.4063 12.789 2.38144 12.7977 2.35578 12.7981C2.33012 12.7985 2.305 12.7907 2.28412 12.7757C2.26323 12.7608 2.24768 12.7396 2.23975 12.7152C2.23181 12.6908 2.23191 12.6645 2.24003 12.6401L2.5067 11.6668C2.51472 11.6432 2.51518 11.6176 2.50801 11.5937C2.50084 11.5698 2.4864 11.5488 2.4667 11.5335L1.68003 10.9201C1.6612 10.905 1.64735 10.8846 1.64031 10.8615C1.63327 10.8384 1.63335 10.8137 1.64055 10.7907C1.64775 10.7677 1.66173 10.7473 1.68067 10.7324C1.69961 10.7174 1.72262 10.7085 1.7467 10.7068L2.76003 10.6535C2.80003 10.6535 2.85336 10.6268 2.8667 10.5735L3.2267 9.64013V9.62679ZM7.2267 1.62679C7.23679 1.60721 7.25209 1.59078 7.2709 1.57931C7.28972 1.56784 7.31133 1.56177 7.33336 1.56177C7.3554 1.56177 7.37701 1.56784 7.39583 1.57931C7.41464 1.59078 7.42994 1.60721 7.44003 1.62679L7.80003 2.57346C7.81336 2.62679 7.8667 2.65346 7.9067 2.65346L8.92003 2.70679C9.0267 2.70679 9.0667 2.84013 8.9867 2.92013L8.1867 3.54679C8.16929 3.56371 8.15742 3.58551 8.15266 3.60932C8.1479 3.63312 8.15047 3.65781 8.16003 3.68013L8.4267 4.64013C8.43482 4.66447 8.43492 4.69078 8.42698 4.71519C8.41904 4.7396 8.40349 4.76082 8.38261 4.77574C8.36172 4.79065 8.33661 4.79848 8.31095 4.79807C8.28528 4.79766 8.26043 4.78904 8.24003 4.77346L7.40003 4.22679C7.3803 4.21361 7.3571 4.20657 7.33336 4.20657C7.30963 4.20657 7.28643 4.21361 7.2667 4.22679L6.4267 4.77346C6.4063 4.78904 6.38144 4.79766 6.35578 4.79807C6.33012 4.79848 6.305 4.79065 6.28412 4.77574C6.26324 4.76082 6.24768 4.7396 6.23975 4.71519C6.23181 4.69078 6.23191 4.66447 6.24003 4.64013L6.5067 3.66679C6.51472 3.64317 6.51518 3.61763 6.50801 3.59373C6.50084 3.56984 6.4864 3.54877 6.4667 3.53346L5.68003 2.92013C5.6612 2.90503 5.64735 2.8846 5.64031 2.86151C5.63327 2.83842 5.63335 2.81375 5.64055 2.79071C5.64775 2.76767 5.66173 2.74733 5.68067 2.73236C5.69961 2.71739 5.72262 2.70848 5.7467 2.70679L6.76003 2.65346C6.80003 2.65346 6.85336 2.62679 6.8667 2.57346L7.2267 1.64013V1.62679ZM7.2267 5.62679C7.23679 5.6072 7.25209 5.59078 7.2709 5.57931C7.28972 5.56783 7.31133 5.56177 7.33336 5.56177C7.3554 5.56177 7.37701 5.56783 7.39583 5.57931C7.41464 5.59078 7.42994 5.6072 7.44003 5.62679L7.80003 6.57346C7.81336 6.62679 7.8667 6.65346 7.9067 6.65346L8.92003 6.70679C9.0267 6.70679 9.0667 6.84013 8.9867 6.92013L8.1867 7.54679C8.16929 7.56371 8.15742 7.58551 8.15266 7.60932C8.1479 7.63312 8.15047 7.65781 8.16003 7.68013L8.4267 8.64013C8.43482 8.66447 8.43492 8.69078 8.42698 8.71519C8.41904 8.7396 8.40349 8.76082 8.38261 8.77573C8.36172 8.79065 8.33661 8.79848 8.31095 8.79807C8.28528 8.79766 8.26043 8.78904 8.24003 8.77346L7.40003 8.22679C7.3803 8.21361 7.3571 8.20657 7.33336 8.20657C7.30963 8.20657 7.28643 8.21361 7.2667 8.22679L6.4267 8.77346C6.4063 8.78904 6.38144 8.79766 6.35578 8.79807C6.33012 8.79848 6.305 8.79065 6.28412 8.77573C6.26324 8.76082 6.24768 8.7396 6.23975 8.71519C6.23181 8.69078 6.23191 8.66447 6.24003 8.64013L6.5067 7.66679C6.51472 7.64317 6.51518 7.61763 6.50801 7.59373C6.50084 7.56984 6.4864 7.54877 6.4667 7.53346L5.68003 6.92013C5.6612 6.90503 5.64735 6.8846 5.64031 6.86151C5.63327 6.83842 5.63335 6.81375 5.64055 6.79071C5.64775 6.76767 5.66173 6.74733 5.68067 6.73236C5.69961 6.71739 5.72262 6.70848 5.7467 6.70679L6.76003 6.65346C6.80003 6.65346 6.85336 6.62679 6.8667 6.57346L7.2267 5.64013V5.62679ZM7.2267 9.62679C7.23679 9.6072 7.25209 9.59077 7.2709 9.5793C7.28972 9.56783 7.31133 9.56177 7.33336 9.56177C7.3554 9.56177 7.37701 9.56783 7.39583 9.5793C7.41464 9.59077 7.42994 9.6072 7.44003 9.62679L7.80003 10.5735C7.81336 10.6268 7.8667 10.6535 7.9067 10.6535L8.92003 10.7068C9.0267 10.7068 9.0667 10.8401 8.9867 10.9201L8.1867 11.5468C8.16929 11.5637 8.15742 11.5855 8.15266 11.6093C8.1479 11.6331 8.15047 11.6578 8.16003 11.6801L8.4267 12.6401C8.43482 12.6645 8.43492 12.6908 8.42698 12.7152C8.41904 12.7396 8.40349 12.7608 8.38261 12.7757C8.36172 12.7907 8.33661 12.7985 8.31095 12.7981C8.28528 12.7977 8.26043 12.789 8.24003 12.7735L7.40003 12.2268C7.3803 12.2136 7.3571 12.2066 7.33336 12.2066C7.30963 12.2066 7.28643 12.2136 7.2667 12.2268L6.4267 12.7735C6.4063 12.789 6.38144 12.7977 6.35578 12.7981C6.33012 12.7985 6.305 12.7907 6.28412 12.7757C6.26324 12.7608 6.24768 12.7396 6.23975 12.7152C6.23181 12.6908 6.23191 12.6645 6.24003 12.6401L6.5067 11.6668C6.51472 11.6432 6.51518 11.6176 6.50801 11.5937C6.50084 11.5698 6.4864 11.5488 6.4667 11.5335L5.68003 10.9201C5.6612 10.905 5.64735 10.8846 5.64031 10.8615C5.63327 10.8384 5.63335 10.8137 5.64055 10.7907C5.64775 10.7677 5.66173 10.7473 5.68067 10.7324C5.69961 10.7174 5.72262 10.7085 5.7467 10.7068L6.76003 10.6535C6.80003 10.6535 6.85336 10.6268 6.8667 10.5735L7.2267 9.64013V9.62679ZM11.2267 1.62679C11.2368 1.60721 11.2521 1.59078 11.2709 1.57931C11.2897 1.56784 11.3113 1.56177 11.3334 1.56177C11.3554 1.56177 11.377 1.56784 11.3958 1.57931C11.4146 1.59078 11.4299 1.60721 11.44 1.62679L11.8 2.57346C11.8134 2.62679 11.8667 2.65346 11.9067 2.65346L12.92 2.70679C13.0267 2.70679 13.0667 2.84013 12.9867 2.92013L12.1867 3.54679C12.1693 3.56371 12.1574 3.58551 12.1527 3.60932C12.1479 3.63312 12.1505 3.65781 12.16 3.68013L12.4267 4.64013C12.4348 4.66447 12.4349 4.69078 12.427 4.71519C12.419 4.7396 12.4035 4.76082 12.3826 4.77574C12.3617 4.79065 12.3366 4.79848 12.3109 4.79807C12.2853 4.79766 12.2604 4.78904 12.24 4.77346L11.4 4.22679C11.3803 4.21361 11.3571 4.20657 11.3334 4.20657C11.3096 4.20657 11.2864 4.21361 11.2667 4.22679L10.4267 4.77346C10.4063 4.78904 10.3814 4.79766 10.3558 4.79807C10.3301 4.79848 10.305 4.79065 10.2841 4.77574C10.2632 4.76082 10.2477 4.7396 10.2397 4.71519C10.2318 4.69078 10.2319 4.66447 10.24 4.64013L10.5067 3.66679C10.5147 3.64317 10.5152 3.61763 10.508 3.59373C10.5008 3.56984 10.4864 3.54877 10.4667 3.53346L9.68003 2.92013C9.6612 2.90503 9.64736 2.8846 9.64031 2.86151C9.63327 2.83842 9.63335 2.81375 9.64055 2.79071C9.64775 2.76767 9.66174 2.74733 9.68067 2.73236C9.69961 2.71739 9.72262 2.70848 9.7467 2.70679L10.76 2.65346C10.8 2.65346 10.8534 2.62679 10.8667 2.57346L11.2267 1.64013V1.62679ZM11.2267 5.62679C11.2368 5.6072 11.2521 5.59078 11.2709 5.57931C11.2897 5.56783 11.3113 5.56177 11.3334 5.56177C11.3554 5.56177 11.377 5.56783 11.3958 5.57931C11.4146 5.59078 11.4299 5.6072 11.44 5.62679L11.8 6.57346C11.8134 6.62679 11.8667 6.65346 11.9067 6.65346L12.92 6.70679C13.0267 6.70679 13.0667 6.84013 12.9867 6.92013L12.1867 7.54679C12.1693 7.56371 12.1574 7.58551 12.1527 7.60932C12.1479 7.63312 12.1505 7.65781 12.16 7.68013L12.4267 8.64013C12.4348 8.66447 12.4349 8.69078 12.427 8.71519C12.419 8.7396 12.4035 8.76082 12.3826 8.77573C12.3617 8.79065 12.3366 8.79848 12.3109 8.79807C12.2853 8.79766 12.2604 8.78904 12.24 8.77346L11.4 8.22679C11.3803 8.21361 11.3571 8.20657 11.3334 8.20657C11.3096 8.20657 11.2864 8.21361 11.2667 8.22679L10.4267 8.77346C10.4063 8.78904 10.3814 8.79766 10.3558 8.79807C10.3301 8.79848 10.305 8.79065 10.2841 8.77573C10.2632 8.76082 10.2477 8.7396 10.2397 8.71519C10.2318 8.69078 10.2319 8.66447 10.24 8.64013L10.5067 7.66679C10.5147 7.64317 10.5152 7.61763 10.508 7.59373C10.5008 7.56984 10.4864 7.54877 10.4667 7.53346L9.68003 6.92013C9.6612 6.90503 9.64736 6.8846 9.64031 6.86151C9.63327 6.83842 9.63335 6.81375 9.64055 6.79071C9.64775 6.76767 9.66174 6.74733 9.68067 6.73236C9.69961 6.71739 9.72262 6.70848 9.7467 6.70679L10.76 6.65346C10.8 6.65346 10.8534 6.62679 10.8667 6.57346L11.2267 5.64013V5.62679ZM11.2267 9.62679C11.2368 9.6072 11.2521 9.59077 11.2709 9.5793C11.2897 9.56783 11.3113 9.56177 11.3334 9.56177C11.3554 9.56177 11.377 9.56783 11.3958 9.5793C11.4146 9.59077 11.4299 9.6072 11.44 9.62679L11.8 10.5735C11.8134 10.6268 11.8667 10.6535 11.9067 10.6535L12.92 10.7068C13.0267 10.7068 13.0667 10.8401 12.9867 10.9201L12.1867 11.5468C12.1693 11.5637 12.1574 11.5855 12.1527 11.6093C12.1479 11.6331 12.1505 11.6578 12.16 11.6801L12.4267 12.6401C12.4348 12.6645 12.4349 12.6908 12.427 12.7152C12.419 12.7396 12.4035 12.7608 12.3826 12.7757C12.3617 12.7907 12.3366 12.7985 12.3109 12.7981C12.2853 12.7977 12.2604 12.789 12.24 12.7735L11.4 12.2268C11.3803 12.2136 11.3571 12.2066 11.3334 12.2066C11.3096 12.2066 11.2864 12.2136 11.2667 12.2268L10.4267 12.7735C10.4063 12.789 10.3814 12.7977 10.3558 12.7981C10.3301 12.7985 10.305 12.7907 10.2841 12.7757C10.2632 12.7608 10.2477 12.7396 10.2397 12.7152C10.2318 12.6908 10.2319 12.6645 10.24 12.6401L10.5067 11.6668C10.5147 11.6432 10.5152 11.6176 10.508 11.5937C10.5008 11.5698 10.4864 11.5488 10.4667 11.5335L9.68003 10.9201C9.6612 10.905 9.64736 10.8846 9.64031 10.8615C9.63327 10.8384 9.63335 10.8137 9.64055 10.7907C9.64775 10.7677 9.66174 10.7473 9.68067 10.7324C9.69961 10.7174 9.72262 10.7085 9.7467 10.7068L10.76 10.6535C10.8 10.6535 10.8534 10.6268 10.8667 10.5735L11.2267 9.64013V9.62679Z" fill="#F0F3FA"/>
        </g>
        <mask id="mask1_391_13796" style="mask-type:alpha" maskUnits="userSpaceOnUse" x="12" y="12" width="24" height="24">
        <rect x="12" y="12" width="24" height="24" rx="6" fill="white"/>
        </mask>
        <g mask="url(#mask1_391_13796)">
        <path d="M12 12H36V36H12V12Z" fill="#EB3223"/>
        <path d="M17.3333 12H24V36H17.3333V12Z" fill="#F0F3FA"/>
        <path d="M12 21.3335H36V28.0002H12V21.3335Z" fill="#F0F3FA"/>
        <path d="M18.6667 12H22.6667V36H18.6667V12Z" fill="#1565C0"/>
        <path d="M12 22.6667H36V26.6667H12V22.6667Z" fill="#1565C0"/>
        </g>    
    </symbol>
    <symbol id="external-link-arrow" viewBox="0 0 16 16" fill="none">
        <path fill-rule="evenodd" clip-rule="evenodd" d="M7.85714 2.3999H13.6V8.14276H12.4V4.44843L7.42426 9.42417L6.57574 8.57564L11.5515 3.5999H7.85714V2.3999Z" fill="#525252"/>
    </symbol>
</svg>